<svg xmlns="http://www.w3.org/2000/svg" viewBox="0 0 1200 820" role="img" aria-labelledby="title desc">
  <title id="title">Developer workspace illustration</title>
  <desc id="desc">A modern desk, laptop interface, notes, and project cards for a personal portfolio website.</desc>
  <defs>
    <linearGradient id="wall" x1="0" x2="1" y1="0" y2="1">
      <stop offset="0" stop-color="#f7f3ea"/>
      <stop offset="0.48" stop-color="#dfeeea"/>
      <stop offset="1" stop-color="#16213a"/>
    </linearGradient>
    <linearGradient id="screen" x1="0" x2="1" y1="0" y2="1">
      <stop offset="0" stop-color="#172033"/>
      <stop offset="1" stop-color="#09111f"/>
    </linearGradient>
    <linearGradient id="accent" x1="0" x2="1">
      <stop offset="0" stop-color="#17bebb"/>
      <stop offset="1" stop-color="#ff6b4a"/>
    </linearGradient>
    <filter id="shadow" x="-20%" y="-20%" width="140%" height="140%">
      <feDropShadow dx="0" dy="22" stdDeviation="24" flood-color="#132034" flood-opacity=".22"/>
    </filter>
  </defs>
  <rect width="1200" height="820" fill="url(#wall)"/>
  <path d="M0 580 C180 520 280 650 450 594 C650 530 780 570 930 515 C1080 460 1130 500 1200 460 L1200 820 L0 820 Z" fill="#eef5ef" opacity=".86"/>
  <rect x="84" y="91" width="260" height="190" rx="22" fill="#fff8ed" opacity=".84"/>
  <rect x="111" y="121" width="86" height="10" rx="5" fill="#1f2a44"/>
  <rect x="111" y="151" width="180" height="9" rx="5" fill="#8ca39b"/>
  <rect x="111" y="177" width="142" height="9" rx="5" fill="#8ca39b"/>
  <rect x="111" y="215" width="68" height="38" rx="12" fill="#17bebb"/>
  <rect x="192" y="215" width="68" height="38" rx="12" fill="#ff6b4a"/>
  <rect x="282" y="116" width="35" height="138" rx="17" fill="#202b45" opacity=".16"/>
  <circle cx="940" cy="160" r="70" fill="#ffcf5a" opacity=".92"/>
  <rect x="814" y="84" width="270" height="260" rx="28" fill="#10213a" opacity=".9"/>
  <path d="M846 291 C900 230 968 236 1050 130" fill="none" stroke="#17bebb" stroke-width="10" stroke-linecap="round"/>
  <circle cx="878" cy="252" r="12" fill="#ff6b4a"/>
  <circle cx="947" cy="218" r="12" fill="#ffcf5a"/>
  <circle cx="1021" cy="153" r="12" fill="#17bebb"/>
  <rect x="165" y="620" width="850" height="78" rx="39" fill="#172033" opacity=".15"/>
  <g filter="url(#shadow)">
    <rect x="250" y="260" width="700" height="415" rx="34" fill="#202b45"/>
    <rect x="286" y="296" width="628" height="324" rx="22" fill="url(#screen)"/>
    <rect x="326" y="338" width="130" height="16" rx="8" fill="#17bebb"/>
    <rect x="326" y="382" width="220" height="12" rx="6" fill="#f7f3ea" opacity=".78"/>
    <rect x="326" y="414" width="165" height="12" rx="6" fill="#f7f3ea" opacity=".48"/>
    <rect x="326" y="446" width="255" height="12" rx="6" fill="#f7f3ea" opacity=".58"/>
    <rect x="326" y="510" width="105" height="54" rx="16" fill="#17bebb"/>
    <rect x="447" y="510" width="105" height="54" rx="16" fill="#ff6b4a"/>
    <rect x="622" y="338" width="235" height="226" rx="24" fill="#f7f3ea" opacity=".08"/>
    <path d="M662 498 L716 435 L758 474 L807 400" fill="none" stroke="url(#accent)" stroke-width="12" stroke-linecap="round" stroke-linejoin="round"/>
    <circle cx="664" cy="498" r="10" fill="#17bebb"/>
    <circle cx="716" cy="435" r="10" fill="#ffcf5a"/>
    <circle cx="758" cy="474" r="10" fill="#ff6b4a"/>
    <circle cx="807" cy="400" r="10" fill="#17bebb"/>
    <path d="M188 672 H1012 C1035 672 1044 706 1023 718 C954 756 841 773 600 773 C359 773 246 756 177 718 C156 706 165 672 188 672 Z" fill="#f7f3ea"/>
    <rect x="484" y="690" width="232" height="18" rx="9" fill="#172033" opacity=".18"/>
  </g>
  <g filter="url(#shadow)">
    <rect x="120" y="430" width="190" height="150" rx="24" fill="#fff8ed"/>
    <rect x="150" y="460" width="78" height="12" rx="6" fill="#172033"/>
    <rect x="150" y="492" width="120" height="10" rx="5" fill="#8ca39b"/>
    <rect x="150" y="518" width="86" height="10" rx="5" fill="#8ca39b"/>
    <rect x="150" y="545" width="48" height="10" rx="5" fill="#17bebb"/>
  </g>
  <g filter="url(#shadow)">
    <rect x="884" y="475" width="190" height="150" rx="24" fill="#fff8ed"/>
    <rect x="914" y="505" width="82" height="12" rx="6" fill="#172033"/>
    <rect x="914" y="538" width="116" height="10" rx="5" fill="#8ca39b"/>
    <rect x="914" y="564" width="74" height="10" rx="5" fill="#8ca39b"/>
    <circle cx="1024" cy="520" r="22" fill="#ff6b4a"/>
  </g>
</svg>
